<svg xmlns="http://www.w3.org/2000/svg" width="128.000000pt" height="128.000000pt" viewBox="0 0 128.000000 128.000000" >
    <g transform="translate(0.000000,128.000000) scale(0.100000,-0.100000)" >
        <path d="M419 1265 c-354 -86 -526 -490 -343 -803 38 -65 141 -162 211 -199 109 -59 258 -80 369 -52 l44 11 0 50 c0 50 0 50 -27 43 -16 -4 -67 -9 -115 -12 -111 -6 -193 19 -281 86 -214 162 -236 471 -47 661 234 233 631 136 730 -178 12 -38 23 -56 32 -53 7 3 28 5 46 5 33 1 34 1 28 39 -8 51 -57 151 -104 212 -119 156 -349 237 -543 190z"/>
        <path d="M419 1057 c-103 -43 -160 -103 -199 -206 -24 -62 -26 -149 -5 -217 17 -56 80 -147 98 -141 22 7 19 36 -7 70 -65 85 -75 206 -25 305 34 69 71 104 144 138 92 43 220 27 299 -38 l37 -31 -101 -54 c-55 -29 -105 -51 -110 -48 -20 13 -81 -24 -95 -58 -48 -114 117 -191 173 -81 20 40 171 169 183 157 5 -5 13 -32 19 -61 15 -83 -1 -146 -68 -255 -15 -24 -15 -29 -2 -37 34 -21 103 86 118 184 9 57 2 129 -17 179 -8 19 -7 34 1 51 16 37 4 60 -31 53 -22 -5 -34 0 -55 22 -80 84 -245 115 -357 68z"/>
        <path d="M952 622 c-39 -60 -91 -149 -114 -198 -39 -82 -43 -95 -43 -170 0 -72 3 -86 30 -130 102 -165 324 -161 419 7 44 77 43 163 -3 272 -33 77 -186 319 -207 324 -5 2 -42 -45 -82 -105z m20 -199 c-40 -144 -44 -177 -28 -253 8 -36 12 -67 10 -69 -2 -2 -19 12 -38 33 -68 71 -62 151 19 300 32 58 60 104 62 102 3 -2 -9 -53 -25 -113z"/>
    </g>
</svg>