<svg xmlns="http://www.w3.org/2000/svg" width="45.659" height="45.659" viewBox="0 0 45.659 45.659">
    <path d="m30.619 27.309v-19.528c0-4.291-3.495-7.781-7.786-7.781-4.29 0-7.785 3.491-7.785 7.78v19.528c-1.902 1.949-3.05 4.604-3.05 7.522 0 5.972 4.857 10.828 10.829 10.828 5.97 0 10.834-4.856 10.834-10.828 0-2.918-1.141-5.572-3.042-7.521zm-7.794 15.351c-4.316 0-7.824-3.512-7.824-7.828 0-2.527 1.174-4.779 3.077-6.211v-12.384h3.372c0.552 0 1-0.47 1-1.022 0-0.553-0.448-1.021-1-1.021h-3.372v-2.466h3.372c0.552 0 1-0.434 1-0.986s-0.448-0.986-1-0.986h-3.372v-1.976c0-2.636 2.119-4.78 4.754-4.78 2.637 0 4.756 2.144 4.756 4.781v20.871c1.903 1.434 3.047 3.671 3.047 6.18 0 4.316-3.494 7.828-7.81 7.828z"/>
    <path d="m25.334 30.463v-11.831h-5.002v11.831c-1.549 0.874-2.537 2.502-2.537 4.369 0 2.788 2.251 5.046 5.038 5.046 2.788 0 5.034-2.258 5.034-5.046 0-1.866-0.982-3.495-2.533-4.369z"/>
</svg>