<svg xmlns="http://www.w3.org/2000/svg" width="128pt" height="128pt" viewBox="0 0 128.000000 128.000000">
    <g transform="translate(0 128) scale(0.1 -0.1)">
        <path d="m990 1235v-45h100 100v-55-55h-50-50v-45-45h50 50v-55-55h-50-50v-45-45h50 50v-55-55h-100-100v-40-40h100 100v-55-55h-50-50v-45-45h50 50v-55-55h-50-50v-45-45h50 50v-55-55h-100-100v-45-45h145 145v640 640h-145-145v-45z"/>
        <path d="m195 973c-10-155-20-199-64-284-55-106-71-168-78-297-6-109-7-112-30-112-22 0-22-2 19-65 24-35 45-65 48-65s24 30 48 65c37 58 40 65 22 65s-20 7-20 78c0 108 22 196 69 288 47 90 66 172 76 327l7 107h-45-45l-7-107z"/>
        <path d="m445 973c-10-155-20-199-64-284-55-106-71-168-78-297-6-109-7-112-30-112-22 0-22-2 19-65 24-35 45-65 48-65s24 30 48 65c37 58 40 65 22 65s-20 7-20 78c0 108 22 196 69 288 47 90 66 172 76 327l7 107h-45-45l-7-107z"/>
        <path d="m695 973c-10-155-20-199-64-284-55-106-71-168-78-297-6-109-7-112-30-112-22 0-22-2 19-65 24-35 45-65 48-65s24 30 48 65c37 58 40 65 22 65s-20 7-20 78c0 108 22 196 69 288 47 90 66 172 76 327l7 107h-45-45l-7-107z"/>
    </g>
</svg>